<svg width="114" height="40" viewBox="0 0 114 40" fill="none" xmlns="http://www.w3.org/2000/svg">
<path d="M18.7227 8.84628C19.2174 7.74386 20.7826 7.74387 21.2773 8.84628L21.8145 10.0435C22.1666 10.828 23.1361 11.1127 23.8564 10.643L24.9556 9.92634C25.9678 9.26639 27.2845 10.1126 27.1047 11.3074L26.9094 12.605C26.7814 13.4554 27.4431 14.219 28.303 14.2134L29.6152 14.2047C30.8235 14.1968 31.4737 15.6205 30.6764 16.5284L29.8106 17.5145C29.2432 18.1606 29.387 19.1608 30.1134 19.6209L31.222 20.3231C32.2428 20.9696 32.02 22.5188 30.8584 22.8516L29.597 23.213C28.7703 23.4499 28.3506 24.369 28.7129 25.1488L29.2659 26.3388C29.775 27.4346 28.7501 28.6175 27.593 28.2694L26.3364 27.8915C25.5129 27.6438 24.6629 28.1901 24.5461 29.042L24.3679 30.3421C24.2038 31.5392 22.7021 31.9802 21.9168 31.0618L21.0641 30.0644C20.5052 29.4109 19.4948 29.4109 18.9359 30.0644L18.0832 31.0618C17.2979 31.9802 15.7962 31.5392 15.6321 30.3421L15.4539 29.042C15.3371 28.1901 14.4871 27.6438 13.6636 27.8915L12.407 28.2694C11.2499 28.6175 10.225 27.4346 10.7341 26.3388L11.2871 25.1488C11.6494 24.369 11.2297 23.4499 10.403 23.213L9.14159 22.8516C7.97999 22.5188 7.75725 20.9696 8.77804 20.3231L9.88657 19.6209C10.613 19.1608 10.7568 18.1606 10.1894 17.5145L9.32362 16.5284C8.52634 15.6205 9.17652 14.1968 10.3848 14.2047L11.697 14.2134C12.5569 14.219 13.2186 13.4554 13.0906 12.605L12.8953 11.3074C12.7155 10.1126 14.0322 9.2664 15.0444 9.92634L16.1436 10.643C16.8639 11.1127 17.8334 10.828 18.1855 10.0435L18.7227 8.84628Z" fill="#E2E8F0"/>
<path d="M57.4181 35.064H52.8019L50.3664 31.4107C50.2342 31.4295 50.1068 31.439 49.9841 31.439C49.8708 31.439 49.7575 31.439 49.6442 31.439C48.6813 31.439 47.7515 31.3115 46.8547 31.0566C45.9673 30.8112 45.1319 30.4619 44.3483 30.0088C43.5742 29.5462 42.8662 28.994 42.2243 28.3521C41.5824 27.7101 41.0301 27.0021 40.5676 26.228C40.1144 25.4445 39.7604 24.6091 39.5055 23.7217C39.2601 22.8249 39.1374 21.895 39.1374 20.9321C39.1374 19.9692 39.2601 19.0394 39.5055 18.1426C39.7604 17.2458 40.1144 16.4103 40.5676 15.6362C41.0301 14.8621 41.5824 14.1541 42.2243 13.5122C42.8662 12.8703 43.5742 12.3228 44.3483 11.8696C45.1319 11.4165 45.9673 11.0672 46.8547 10.8218C47.7515 10.5669 48.6813 10.4395 49.6442 10.4395C50.6071 10.4395 51.537 10.5669 52.4338 10.8218C53.3306 11.0672 54.166 11.4165 54.9401 11.8696C55.7142 12.3228 56.4222 12.8703 57.0641 13.5122C57.7061 14.1541 58.2536 14.8621 58.7067 15.6362C59.1598 16.4103 59.5091 17.2458 59.7546 18.1426C60.0095 19.0394 60.1369 19.9692 60.1369 20.9321C60.1369 21.9328 59.9953 22.9051 59.7121 23.8491C59.4383 24.7931 59.0466 25.6758 58.5368 26.4971C58.027 27.3089 57.4087 28.0453 56.6818 28.7061C55.9644 29.3669 55.162 29.9191 54.2746 30.3628L57.4181 35.064ZM56.1013 20.9321C56.1013 20.0448 55.9313 19.2093 55.5915 18.4258C55.2516 17.6328 54.7891 16.9484 54.2038 16.3726C53.6279 15.7873 52.9435 15.3247 52.1506 14.9849C51.367 14.645 50.5316 14.4751 49.6442 14.4751C48.7474 14.4751 47.9072 14.645 47.1237 14.9849C46.3402 15.3247 45.6558 15.7873 45.0705 16.3726C44.4852 16.9484 44.0226 17.6328 43.6828 18.4258C43.343 19.2093 43.173 20.0448 43.173 20.9321C43.173 21.8195 43.343 22.655 43.6828 23.4385C44.0226 24.2126 44.4852 24.8923 45.0705 25.4775C45.6558 26.0628 46.3402 26.5254 47.1237 26.8652C47.9072 27.2051 48.7474 27.375 49.6442 27.375C50.5316 27.375 51.367 27.2051 52.1506 26.8652C52.9435 26.5254 53.6279 26.0628 54.2038 25.4775C54.7891 24.8923 55.2516 24.2126 55.5915 23.4385C55.9313 22.655 56.1013 21.8195 56.1013 20.9321ZM72.3866 29.23C72.075 29.5132 71.7399 29.7822 71.3812 30.0371C71.0319 30.2826 70.6638 30.4997 70.2767 30.6885C69.8897 30.8678 69.4885 31.0094 69.0731 31.1133C68.6672 31.2266 68.2518 31.2832 67.827 31.2832C66.8924 31.2832 66.0145 31.118 65.1932 30.7876C64.3719 30.4572 63.6498 29.9899 63.0267 29.3857C62.4131 28.7721 61.9269 28.0311 61.5682 27.1626C61.2189 26.2847 61.0443 25.3029 61.0443 24.2173V15.8345L64.8958 15.8345V24.2173C64.8958 24.7271 64.9714 25.1849 65.1224 25.5908C65.2829 25.9873 65.4953 26.3224 65.7596 26.5962C66.0239 26.87 66.3307 27.0776 66.68 27.2192C67.0388 27.3608 67.4211 27.4316 67.827 27.4316C68.2235 27.4316 68.5964 27.342 68.9457 27.1626C69.3044 26.9738 69.6159 26.7284 69.8802 26.4263C70.1445 26.1242 70.3522 25.7843 70.5033 25.4067C70.6543 25.0197 70.7298 24.6232 70.7298 24.2173V15.8345H74.5956V31H73.661L72.3866 29.23ZM80.9546 11.7139C80.9546 12.0726 80.8838 12.4077 80.7422 12.7192C80.61 13.0308 80.426 13.3045 80.19 13.5405C79.9539 13.7671 79.6755 13.9512 79.3545 14.0928C79.043 14.2249 78.7079 14.291 78.3491 14.291C77.9904 14.291 77.6506 14.2249 77.3296 14.0928C77.0181 13.9512 76.7443 13.7671 76.5083 13.5405C76.2817 13.3045 76.0977 13.0308 75.9561 12.7192C75.8239 12.4077 75.7578 12.0726 75.7578 11.7139C75.7578 11.3646 75.8239 11.0342 75.9561 10.7227C76.0977 10.4017 76.2817 10.1279 76.5083 9.90137C76.7443 9.66537 77.0181 9.48128 77.3296 9.34912C77.6506 9.20752 77.9904 9.13672 78.3491 9.13672C78.7079 9.13672 79.043 9.20752 79.3545 9.34912C79.6755 9.48128 79.9539 9.66537 80.19 9.90137C80.426 10.1279 80.61 10.4017 80.7422 10.7227C80.8838 11.0342 80.9546 11.3646 80.9546 11.7139ZM80.2891 31H76.395V15.8345L80.2891 15.8345V31ZM86.6481 11.7139C86.6481 12.0726 86.5773 12.4077 86.4357 12.7192C86.3036 13.0308 86.1195 13.3045 85.8835 13.5405C85.6475 13.7671 85.369 13.9512 85.048 14.0928C84.7365 14.2249 84.4014 14.291 84.0426 14.291C83.6839 14.291 83.3441 14.2249 83.0231 14.0928C82.7116 13.9512 82.4378 13.7671 82.2018 13.5405C81.9753 13.3045 81.7912 13.0308 81.6496 12.7192C81.5174 12.4077 81.4513 12.0726 81.4513 11.7139C81.4513 11.3646 81.5174 11.0342 81.6496 10.7227C81.7912 10.4017 81.9753 10.1279 82.2018 9.90137C82.4378 9.66537 82.7116 9.48128 83.0231 9.34912C83.3441 9.20752 83.6839 9.13672 84.0426 9.13672C84.4014 9.13672 84.7365 9.20752 85.048 9.34912C85.369 9.48128 85.6475 9.66537 85.8835 9.90137C86.1195 10.1279 86.3036 10.4017 86.4357 10.7227C86.5773 11.0342 86.6481 11.3646 86.6481 11.7139ZM85.9826 31H82.0885V15.8345H85.9826V31ZM102.962 23.2827C102.962 24.4722 102.759 25.5578 102.353 26.5396C101.947 27.5213 101.395 28.3662 100.696 29.0742C99.9976 29.7728 99.1763 30.3156 98.2323 30.7026C97.2977 31.0897 96.2923 31.2832 95.2161 31.2832C94.1494 31.2832 93.144 31.085 92.2 30.6885C91.2655 30.292 90.4442 29.7398 89.7362 29.0317C89.0376 28.3237 88.4854 27.4836 88.0794 26.5112C87.6735 25.5295 87.4705 24.4533 87.4705 23.2827V9.80225L91.3504 9.80225V16.8823C91.5581 16.618 91.8083 16.382 92.1009 16.1743C92.403 15.9666 92.724 15.7967 93.0638 15.6646C93.4131 15.5324 93.7718 15.4333 94.14 15.3672C94.5081 15.2917 94.8669 15.2539 95.2161 15.2539C96.2923 15.2539 97.2977 15.4569 98.2323 15.8628C99.1763 16.2593 99.9976 16.8162 100.696 17.5337C101.395 18.2511 101.947 19.1008 102.353 20.0825C102.759 21.0549 102.962 22.1216 102.962 23.2827ZM99.0677 23.2827C99.0677 22.6974 98.9639 22.1546 98.7562 21.6543C98.5579 21.1445 98.2842 20.7056 97.9349 20.3374C97.5856 19.9692 97.175 19.6813 96.703 19.4736C96.2404 19.266 95.7448 19.1621 95.2161 19.1621C94.6875 19.1621 94.1872 19.2801 93.7152 19.5161C93.2526 19.7427 92.8467 20.0495 92.4974 20.4365C92.1481 20.8141 91.8743 21.2531 91.6761 21.7534C91.4779 22.2443 91.3787 22.7541 91.3787 23.2827C91.3787 23.868 91.4779 24.4108 91.6761 24.9111C91.8743 25.4115 92.1481 25.8457 92.4974 26.2139C92.8467 26.582 93.2526 26.8747 93.7152 27.0918C94.1872 27.2995 94.6875 27.4033 95.2161 27.4033C95.7448 27.4033 96.2404 27.2995 96.703 27.0918C97.175 26.8747 97.5856 26.582 97.9349 26.2139C98.2842 25.8457 98.5579 25.4115 98.7562 24.9111C98.9639 24.4108 99.0677 23.868 99.0677 23.2827Z" fill="#E2E8F0"/>
</svg>
