<svg width="155" height="63" viewBox="0 0 155 63" fill="none" xmlns="http://www.w3.org/2000/svg">
<path d="M44.2162 62.8096H33.0736L27.1947 53.9912C26.8757 54.0368 26.5681 54.0596 26.2719 54.0596C25.9984 54.0596 25.725 54.0596 25.4516 54.0596C23.1273 54.0596 20.8829 53.752 18.7182 53.1367C16.5762 52.5443 14.5596 51.7012 12.6684 50.6074C10.7999 49.4909 9.09089 48.1579 7.54141 46.6084C5.99193 45.0589 4.65892 43.3499 3.54238 41.4815C2.44863 39.5902 1.59414 37.5736 0.978905 35.4317C0.386457 33.2669 0.0902333 31.0225 0.0902333 28.6983C0.0902333 26.374 0.386457 24.1296 0.978905 21.9649C1.59414 19.8001 2.44863 17.7835 3.54238 15.915C4.65892 14.0466 5.99193 12.3376 7.54141 10.7881C9.09089 9.23861 10.7999 7.917 12.6684 6.82325C14.5596 5.7295 16.5762 4.8864 18.7182 4.29395C20.8829 3.67872 23.1273 3.3711 25.4516 3.3711C27.7758 3.3711 30.0203 3.67872 32.185 4.29395C34.3497 4.8864 36.3663 5.7295 38.2348 6.82325C40.1033 7.917 41.8122 9.23861 43.3617 10.7881C44.9112 12.3376 46.2328 14.0466 47.3266 15.915C48.4203 17.7835 49.2634 19.8001 49.8559 21.9649C50.4711 24.1296 50.7787 26.374 50.7787 28.6983C50.7787 31.1136 50.4369 33.4606 49.7533 35.7393C49.0925 38.0179 48.1469 40.1485 46.9164 42.1309C45.6859 44.0905 44.1934 45.8679 42.4389 47.4629C40.7071 49.058 38.7703 50.391 36.6283 51.4619L44.2162 62.8096ZM41.0375 28.6983C41.0375 26.5563 40.6274 24.5397 39.807 22.6484C38.9867 20.7344 37.8702 19.0824 36.4574 17.6924C35.0675 16.2796 33.4154 15.1631 31.5014 14.3428C29.6101 13.5225 27.5935 13.1123 25.4516 13.1123C23.2869 13.1123 21.2589 13.5225 19.3676 14.3428C17.4763 15.1631 15.8243 16.2796 14.4115 17.6924C12.9988 19.0824 11.8822 20.7344 11.0619 22.6484C10.2416 24.5397 9.83145 26.5563 9.83145 28.6983C9.83145 30.8402 10.2416 32.8568 11.0619 34.7481C11.8822 36.6165 12.9988 38.2572 14.4115 39.6699C15.8243 41.0827 17.4763 42.1992 19.3676 43.0195C21.2589 43.8399 23.2869 44.25 25.4516 44.25C27.5935 44.25 29.6101 43.8399 31.5014 43.0195C33.4154 42.1992 35.0675 41.0827 36.4574 39.6699C37.8702 38.2572 38.9867 36.6165 39.807 34.7481C40.6274 32.8568 41.0375 30.8402 41.0375 28.6983ZM80.3469 48.7276C79.5949 49.4111 78.786 50.0606 77.9201 50.6758C77.077 51.2682 76.1884 51.7923 75.2541 52.2481C74.3199 52.681 73.3514 53.0228 72.3488 53.2735C71.369 53.5469 70.3664 53.6836 69.341 53.6836C67.0852 53.6836 64.966 53.2848 62.9836 52.4873C61.0012 51.6898 59.258 50.5619 57.7541 49.1035C56.273 47.6224 55.0995 45.8337 54.2336 43.7373C53.3905 41.6182 52.969 39.2484 52.969 36.6279V16.3936H62.2658V36.6279C62.2658 37.8584 62.4481 38.9636 62.8127 39.9434C63.2001 40.9004 63.7128 41.7093 64.3508 42.3701C64.9888 43.0309 65.7294 43.5322 66.5725 43.874C67.4384 44.2158 68.3612 44.3867 69.341 44.3867C70.2981 44.3867 71.1981 44.1703 72.0412 43.7373C72.9071 43.2816 73.6591 42.6891 74.2971 41.96C74.9351 41.2308 75.4364 40.4105 75.801 39.499C76.1656 38.5648 76.3479 37.6078 76.3479 36.6279V16.3936H85.6789L85.6789 53H83.4231L80.3469 48.7276ZM101.028 6.44727C101.028 7.31316 100.857 8.12208 100.516 8.87403C100.197 9.62598 99.7523 10.2868 99.1826 10.8565C98.613 11.4033 97.9408 11.8477 97.166 12.1895C96.4141 12.5085 95.6052 12.668 94.7393 12.668C93.8734 12.668 93.0531 12.5085 92.2783 12.1895C91.5264 11.8477 90.8656 11.4033 90.2959 10.8565C89.749 10.2868 89.3047 9.62598 88.9629 8.87403C88.6439 8.12208 88.4844 7.31316 88.4844 6.44727C88.4844 5.60417 88.6439 4.80665 88.9629 4.05469C89.3047 3.27995 89.749 2.61915 90.2959 2.07227C90.8656 1.50261 91.5264 1.05827 92.2783 0.739262C93.0531 0.397465 93.8734 0.226566 94.7393 0.226566C95.6052 0.226566 96.4141 0.397465 97.166 0.739262C97.9408 1.05827 98.613 1.50261 99.1826 2.07227C99.7523 2.61915 100.197 3.27995 100.516 4.05469C100.857 4.80665 101.028 5.60417 101.028 6.44727ZM99.4219 53H90.0225L90.0225 16.3936L99.4219 16.3936L99.4219 53ZM114.771 6.44727C114.771 7.31316 114.6 8.12208 114.259 8.87403C113.94 9.62598 113.495 10.2868 112.926 10.8565C112.356 11.4033 111.684 11.8477 110.909 12.1895C110.157 12.5085 109.348 12.668 108.482 12.668C107.616 12.668 106.796 12.5085 106.021 12.1895C105.269 11.8477 104.609 11.4033 104.039 10.8565C103.492 10.2868 103.048 9.62598 102.706 8.87403C102.387 8.12208 102.227 7.31316 102.227 6.44727C102.227 5.60417 102.387 4.80665 102.706 4.05469C103.048 3.27995 103.492 2.61915 104.039 2.07227C104.609 1.50261 105.269 1.05827 106.021 0.739262C106.796 0.397465 107.616 0.226566 108.482 0.226566C109.348 0.226566 110.157 0.397465 110.909 0.739262C111.684 1.05827 112.356 1.50261 112.926 2.07227C113.495 2.61915 113.94 3.27995 114.259 4.05469C114.6 4.80665 114.771 5.60417 114.771 6.44727ZM113.165 53H103.765L103.765 16.3936H113.165L113.165 53ZM154.149 34.3721C154.149 37.2432 153.659 39.8636 152.679 42.2334C151.7 44.6032 150.367 46.6426 148.68 48.3516C146.994 50.0378 145.012 51.348 142.733 52.2822C140.477 53.2165 138.05 53.6836 135.453 53.6836C132.878 53.6836 130.451 53.2051 128.172 52.2481C125.917 51.291 123.934 49.958 122.225 48.249C120.539 46.5401 119.206 44.5121 118.226 42.1651C117.246 39.7953 116.756 37.1976 116.756 34.3721V1.83301H126.122V18.9229C126.623 18.2848 127.227 17.7152 127.933 17.2139C128.662 16.7126 129.437 16.3024 130.257 15.9834C131.101 15.6644 131.966 15.4251 132.855 15.2656C133.744 15.0833 134.61 14.9922 135.453 14.9922C138.05 14.9922 140.477 15.4821 142.733 16.4619C145.012 17.419 146.994 18.7634 148.68 20.4951C150.367 22.2269 151.7 24.2777 152.679 26.6475C153.659 28.9945 154.149 31.5693 154.149 34.3721ZM144.75 34.3721C144.75 32.9593 144.499 31.6491 143.998 30.4414C143.519 29.2109 142.858 28.1514 142.015 27.2627C141.172 26.374 140.181 25.679 139.042 25.1777C137.925 24.6764 136.729 24.4258 135.453 24.4258C134.177 24.4258 132.969 24.7106 131.83 25.2803C130.713 25.8272 129.733 26.5677 128.89 27.502C128.047 28.4134 127.386 29.473 126.908 30.6807C126.429 31.8656 126.19 33.096 126.19 34.3721C126.19 35.7848 126.429 37.0951 126.908 38.3027C127.386 39.5104 128.047 40.5586 128.89 41.4473C129.733 42.336 130.713 43.0423 131.83 43.5664C132.969 44.0677 134.177 44.3184 135.453 44.3184C136.729 44.3184 137.925 44.0677 139.042 43.5664C140.181 43.0423 141.172 42.336 142.015 41.4473C142.858 40.5586 143.519 39.5104 143.998 38.3027C144.499 37.0951 144.75 35.7848 144.75 34.3721Z" fill="#E2E8F0"/>
</svg>
